<svg width="38" height="38" viewBox="0 0 38 38" fill="none" xmlns="http://www.w3.org/2000/svg">
<g filter="url(#filter0_dddi_354_1391)">
<path d="M3 14.8C3 10.3196 3 8.07937 3.87195 6.36808C4.63893 4.86278 5.86278 3.63893 7.36808 2.87195C9.07937 2 11.3196 2 15.8 2H22.2C26.6804 2 28.9206 2 30.6319 2.87195C32.1372 3.63893 33.3611 4.86278 34.1281 6.36808C35 8.07937 35 10.3196 35 14.8V21.2C35 25.6804 35 27.9206 34.1281 29.6319C33.3611 31.1372 32.1372 32.3611 30.6319 33.1281C28.9206 34 26.6804 34 22.2 34H15.8C11.3196 34 9.07937 34 7.36808 33.1281C5.86278 32.3611 4.63893 31.1372 3.87195 29.6319C3 27.9206 3 25.6804 3 21.2V14.8Z" fill="#F5F5F5"/>
<path d="M15.7998 2.09961H22.2002C24.442 2.09961 26.1173 2.1004 27.4463 2.20898C28.7741 2.31747 29.7477 2.53335 30.5869 2.96094C32.0732 3.7183 33.2817 4.92681 34.0391 6.41309C34.4666 7.25227 34.6825 8.22592 34.791 9.55371C34.8996 10.8827 34.9004 12.558 34.9004 14.7998V21.2002C34.9004 23.442 34.8996 25.1173 34.791 26.4463C34.6825 27.7741 34.4666 28.7477 34.0391 29.5869C33.2817 31.0732 32.0732 32.2817 30.5869 33.0391C29.7477 33.4666 28.7741 33.6825 27.4463 33.791C26.1173 33.8996 24.442 33.9004 22.2002 33.9004H15.7998C13.558 33.9004 11.8827 33.8996 10.5537 33.791C9.22592 33.6825 8.25227 33.4666 7.41309 33.0391C5.92681 32.2817 4.7183 31.0732 3.96094 29.5869C3.53335 28.7477 3.31747 27.7741 3.20898 26.4463C3.1004 25.1173 3.09961 23.442 3.09961 21.2002V14.7998C3.09961 12.558 3.1004 10.8827 3.20898 9.55371C3.31747 8.22592 3.53335 7.25227 3.96094 6.41309C4.7183 4.92681 5.92681 3.7183 7.41309 2.96094C8.25227 2.53335 9.22592 2.31747 10.5537 2.20898C11.8827 2.1004 13.558 2.09961 15.7998 2.09961Z" stroke="#0A0D12" stroke-opacity="0.12" stroke-width="0.2"/>
<path d="M19 6C22.2389 6 25.1761 7.28533 27.335 9.37109C27.3863 9.41775 27.437 9.46533 27.4863 9.51465L27.6143 9.64941C29.7088 11.8097 31 14.7534 31 18C31 21.3137 29.6569 24.3138 27.4854 26.4854L27.3516 26.6143C27.3456 26.6197 27.339 26.6245 27.333 26.6299C25.1743 28.7148 22.2382 30 19 30C12.3726 30 7 24.6274 7 18C7 11.3726 12.3726 6 19 6ZM18.999 26.7314C17.9041 27.2457 16.8186 27.5942 15.7881 27.7676C16.7989 28.0998 17.878 28.2822 19 28.2822C20.1202 28.2822 21.1976 28.0998 22.207 27.7686C21.1774 27.5947 20.0928 27.2454 18.999 26.7314ZM11.3936 20.0049C11.2971 20.2869 11.2146 20.5646 11.1465 20.8369C10.614 22.9671 11.0051 24.4297 11.7881 25.2129C12.5712 25.9959 14.0338 26.387 16.1641 25.8545C16.4359 25.7865 16.7127 25.7027 16.9941 25.6064C15.9337 24.9136 14.8904 24.073 13.9092 23.0918C12.9275 22.1101 12.0866 21.0659 11.3936 20.0049ZM26.6074 20.0059C25.9145 21.0666 25.0732 22.1104 24.0918 23.0918L23.6494 23.5215C22.7997 24.3211 21.9094 25.0178 21.0068 25.6074C21.2882 25.7036 21.5652 25.7866 21.8369 25.8545C23.9672 26.387 25.4297 25.9959 26.2129 25.2129L26.3555 25.0576C27.0414 24.2438 27.3537 22.8338 26.8545 20.8369C26.7865 20.5649 26.7038 20.2875 26.6074 20.0059ZM19 11.2861C17.7147 11.9895 16.4065 12.9578 15.1826 14.1816C13.9584 15.4058 12.9896 16.7144 12.2861 18C12.9896 19.2857 13.9574 20.5951 15.1816 21.8193C16.4056 23.0433 17.7146 24.0105 19 24.7139C20.2855 24.0102 21.595 23.0427 22.8193 21.8184C24.0433 20.5943 25.0103 19.2852 25.7139 18C25.0103 16.7148 24.0423 15.4066 22.8184 14.1826C21.5941 12.9584 20.2855 11.9898 19 11.2861ZM28.7695 14.7939C28.5956 15.8237 28.2454 16.9081 27.7314 18.002C28.2454 19.0962 28.594 20.181 28.7676 21.2109C29.0996 20.2004 29.2822 19.1216 29.2822 18C29.2822 16.8802 29.1005 15.8031 28.7695 14.7939ZM9.23145 14.7891C8.89947 15.7996 8.71777 16.8785 8.71777 18C8.71777 19.1212 8.89965 20.1997 9.23145 21.21C9.40508 20.1798 9.75443 19.0944 10.2686 18C9.75428 16.9052 9.40496 15.8196 9.23145 14.7891ZM16.1641 10.1465C14.034 9.61401 12.5714 10.0043 11.7881 10.7871C11.005 11.5702 10.6141 13.0329 11.1465 15.1631C11.2145 15.435 11.2973 15.7126 11.3936 15.9941C12.0864 14.9335 12.9279 13.8905 13.9092 12.9092C14.8909 11.9274 15.935 11.0857 16.9961 10.3926C16.7142 10.2961 16.4363 10.2146 16.1641 10.1465ZM26.2139 10.7881C25.4308 10.005 23.9682 9.61403 21.8379 10.1465C21.5656 10.2146 21.2878 10.2971 21.0059 10.3936C22.0667 11.0865 23.1103 11.9277 24.0918 12.9092L24.5215 13.3525C25.3209 14.2021 26.0179 15.0918 26.6074 15.9941C26.7037 15.7127 26.7875 15.4359 26.8555 15.1641C27.388 13.034 26.9967 11.5713 26.2139 10.7881ZM19 7.71777C17.8789 7.71777 16.8002 7.89874 15.79 8.23047C16.8205 8.40403 17.9063 8.75334 19.001 9.26758C20.0953 8.75355 21.1808 8.40502 22.2109 8.23145C21.2004 7.89947 20.1215 7.71777 19 7.71777Z" fill="#14B8A6"/>
</g>
<defs>
<filter id="filter0_dddi_354_1391" x="0" y="0" width="38" height="38" filterUnits="userSpaceOnUse" color-interpolation-filters="sRGB">
<feFlood flood-opacity="0" result="BackgroundImageFix"/>
<feColorMatrix in="SourceAlpha" type="matrix" values="0 0 0 0 0 0 0 0 0 0 0 0 0 0 0 0 0 0 127 0" result="hardAlpha"/>
<feOffset dy="1"/>
<feGaussianBlur stdDeviation="1"/>
<feColorMatrix type="matrix" values="0 0 0 0 0.0392157 0 0 0 0 0.0509804 0 0 0 0 0.0705882 0 0 0 0.06 0"/>
<feBlend mode="normal" in2="BackgroundImageFix" result="effect1_dropShadow_354_1391"/>
<feColorMatrix in="SourceAlpha" type="matrix" values="0 0 0 0 0 0 0 0 0 0 0 0 0 0 0 0 0 0 127 0" result="hardAlpha"/>
<feOffset dy="1"/>
<feGaussianBlur stdDeviation="1.5"/>
<feColorMatrix type="matrix" values="0 0 0 0 0.0392157 0 0 0 0 0.0509804 0 0 0 0 0.0705882 0 0 0 0.1 0"/>
<feBlend mode="normal" in2="effect1_dropShadow_354_1391" result="effect2_dropShadow_354_1391"/>
<feColorMatrix in="SourceAlpha" type="matrix" values="0 0 0 0 0 0 0 0 0 0 0 0 0 0 0 0 0 0 127 0" result="hardAlpha"/>
<feMorphology radius="0.5" operator="erode" in="SourceAlpha" result="effect3_dropShadow_354_1391"/>
<feOffset dy="1"/>
<feGaussianBlur stdDeviation="0.5"/>
<feComposite in2="hardAlpha" operator="out"/>
<feColorMatrix type="matrix" values="0 0 0 0 0.0392157 0 0 0 0 0.0509804 0 0 0 0 0.0705882 0 0 0 0.13 0"/>
<feBlend mode="normal" in2="effect2_dropShadow_354_1391" result="effect3_dropShadow_354_1391"/>
<feBlend mode="normal" in="SourceGraphic" in2="effect3_dropShadow_354_1391" result="shape"/>
<feColorMatrix in="SourceAlpha" type="matrix" values="0 0 0 0 0 0 0 0 0 0 0 0 0 0 0 0 0 0 127 0" result="hardAlpha"/>
<feOffset dy="-0.5"/>
<feGaussianBlur stdDeviation="0.25"/>
<feComposite in2="hardAlpha" operator="arithmetic" k2="-1" k3="1"/>
<feColorMatrix type="matrix" values="0 0 0 0 0.0392157 0 0 0 0 0.0509804 0 0 0 0 0.0705882 0 0 0 0.1 0"/>
<feBlend mode="normal" in2="shape" result="effect4_innerShadow_354_1391"/>
</filter>
</defs>
</svg>
